<?xml version="1.0" standalone="no"?>
<!DOCTYPE svg PUBLIC "-//W3C//DTD SVG 20010904//EN"
 "http://www.w3.org/TR/2001/REC-SVG-20010904/DTD/svg10.dtd">
<svg version="1.0" xmlns="http://www.w3.org/2000/svg"
 width="900.000000pt" height="900.000000pt" viewBox="0 0 900.000000 900.000000"
 preserveAspectRatio="xMidYMid meet">
<metadata>
Created by potrace 1.10, written by Peter Selinger 2001-2011
</metadata>
<g transform="translate(0.000000,900.000000) scale(0.100000,-0.100000)"
fill="#000000" stroke="none">
<path d="M5024 7499 c-27 -30 -54 -125 -54 -193 0 -149 68 -335 156 -423 59
-59 96 -68 153 -36 16 10 32 15 35 12 10 -9 19 -117 12 -143 -5 -20 -13 -26
-35 -26 -16 0 -36 9 -47 21 -14 16 -26 19 -52 14 -18 -3 -66 -2 -105 4 -235
33 -235 33 -266 17 -18 -10 -32 -26 -36 -44 -10 -46 9 -77 61 -101 50 -24 47
-40 -6 -41 -14 0 -56 -12 -95 -26 -38 -14 -79 -28 -90 -31 -36 -10 -45 -25
-45 -69 0 -35 6 -49 35 -79 25 -28 39 -35 52 -30 75 32 251 85 279 85 10 0 39
-14 63 -30 24 -17 49 -30 56 -30 6 0 28 16 48 37 40 40 52 40 41 -1 -11 -45
-60 -66 -155 -66 -47 -1 -102 -7 -124 -15 -22 -8 -47 -15 -55 -15 -43 0 -140
-70 -140 -100 0 -17 29 -50 44 -50 4 0 29 19 57 43 27 23 61 45 76 49 16 4 46
11 68 17 22 6 68 11 103 11 111 0 178 55 191 154 6 51 7 51 41 49 68 -3 159
-46 160 -75 0 -4 20 -37 45 -74 25 -36 45 -67 45 -70 0 -3 9 -17 19 -32 28
-39 155 -235 160 -246 2 -4 23 -37 47 -72 24 -35 44 -67 44 -70 0 -3 12 -23
28 -43 36 -48 65 -101 59 -108 -8 -8 -27 6 -27 20 0 16 -80 68 -145 95 -75 31
-243 56 -329 48 -186 -16 -343 -45 -568 -101 -32 -8 -86 -22 -120 -31 -192
-48 -284 -82 -448 -164 -267 -133 -587 -352 -726 -496 -39 -41 -77 -74 -83
-74 -6 0 -11 16 -11 36 0 25 -9 48 -30 74 -16 21 -30 42 -30 47 0 16 -62 73
-87 79 -26 7 -45 -5 -152 -90 -64 -52 -78 -61 -151 -96 -109 -53 -160 -68
-330 -96 -81 -14 -167 -18 -380 -18 -281 -1 -365 8 -516 50 -28 8 -77 14 -110
14 -63 0 -79 -8 -152 -71 -37 -31 -42 -41 -42 -78 0 -46 24 -90 86 -160 40
-45 169 -154 216 -184 34 -21 34 -33 5 -69 l-22 -28 -70 24 c-219 72 -491 76
-710 10 -78 -24 -180 -64 -215 -85 -8 -5 -22 -12 -30 -16 -8 -4 -33 -18 -55
-32 -22 -14 -45 -28 -52 -31 -54 -24 -299 -269 -323 -323 -3 -7 -16 -30 -30
-52 -208 -326 -238 -790 -74 -1128 8 -16 14 -32 14 -37 0 -15 91 -163 135
-220 97 -125 263 -263 405 -335 108 -55 106 -54 156 -71 143 -49 182 -54 409
-54 228 0 266 5 410 55 173 58 383 200 498 335 22 25 50 57 62 72 24 27 70 95
92 137 92 170 120 250 149 436 16 102 14 262 -5 385 -32 207 -144 435 -302
614 -37 42 -160 152 -198 177 -22 14 -23 17 -12 52 15 43 44 55 93 37 18 -6
70 -15 115 -20 96 -10 184 -48 217 -95 25 -34 86 -170 86 -192 0 -7 9 -31 20
-53 15 -29 39 -50 101 -87 86 -50 106 -72 119 -125 9 -37 26 -85 48 -140 22
-55 18 -108 -12 -172 -48 -101 -57 -255 -21 -346 26 -68 29 -74 69 -132 21
-32 117 -98 141 -98 15 0 90 -51 105 -71 15 -20 136 -74 205 -92 77 -19 109
-20 810 -18 680 2 734 3 790 21 80 25 114 43 167 89 59 53 92 119 112 226 23
119 74 237 155 360 36 55 69 107 74 115 4 8 15 27 25 41 16 26 74 122 98 164
18 31 108 213 141 285 17 36 51 109 77 163 25 53 66 139 90 190 24 50 77 162
119 247 72 149 131 271 251 521 31 64 62 119 71 122 14 6 19 -1 55 -68 5 -11
18 -32 28 -47 9 -14 44 -70 77 -123 33 -53 67 -107 75 -120 8 -13 42 -67 75
-120 33 -53 68 -108 77 -123 10 -15 21 -34 25 -42 3 -8 19 -31 35 -51 15 -20
28 -41 28 -47 0 -6 -19 -24 -42 -41 -68 -49 -225 -209 -289 -293 -33 -42 -59
-79 -59 -82 0 -3 -13 -24 -28 -48 -27 -41 -80 -147 -107 -213 -7 -16 -20 -47
-29 -68 -9 -21 -16 -44 -16 -52 0 -8 -6 -29 -14 -47 -26 -63 -92 -308 -106
-398 -9 -58 -29 -135 -46 -182 -36 -97 -51 -127 -95 -185 -53 -67 -51 -76 11
-87 97 -18 263 52 439 185 63 48 81 53 81 21 0 -33 47 -164 94 -262 84 -173
206 -320 365 -438 94 -70 99 -73 186 -115 201 -97 330 -127 549 -127 155 0
225 9 337 45 26 8 52 15 58 15 11 0 135 54 161 71 8 5 22 12 30 16 57 25 191
125 262 195 118 115 187 209 248 338 77 159 94 220 117 407 15 123 15 143 0
265 -20 162 -34 222 -82 333 -25 61 -78 161 -96 184 -29 36 -24 45 39 66 93
31 159 62 165 79 6 14 -38 80 -95 141 -15 17 -28 33 -28 36 0 18 -284 245
-340 272 -8 4 -28 16 -45 26 -101 65 -256 124 -445 168 -109 26 -555 26 -650
0 -137 -37 -176 -49 -205 -63 -17 -8 -43 -16 -58 -17 -28 -2 -46 18 -87 98 -6
11 -19 34 -30 50 -11 17 -24 39 -30 50 -6 11 -19 34 -30 50 -11 17 -24 39 -30
50 -6 11 -19 34 -30 50 -11 17 -24 39 -30 50 -6 11 -19 34 -30 50 -11 17 -24
39 -30 50 -13 24 -27 46 -64 104 -15 24 -24 47 -19 51 4 4 73 10 153 12 181 5
190 10 213 107 10 38 17 106 17 152 0 100 -26 323 -46 395 -8 28 -14 58 -14
68 0 30 -40 96 -65 108 -18 8 -39 7 -89 -6 -36 -9 -78 -16 -93 -17 -54 -1
-163 -35 -210 -66 -55 -36 -99 -81 -132 -135 -12 -21 -26 -38 -31 -38 -4 0
-13 24 -20 53 -19 83 -32 97 -88 97 -26 -1 -58 -7 -72 -15 -42 -24 -66 -18
-99 24 -17 21 -31 41 -31 44 0 3 -20 35 -45 71 -25 37 -45 68 -45 71 0 3 -20
34 -44 69 -24 35 -45 68 -47 72 -14 32 -142 214 -165 235 -33 30 -102 59 -142
60 -15 0 -52 8 -82 17 l-55 18 -8 114 c-5 63 -10 149 -11 190 -4 123 -17 232
-33 275 -45 121 -63 154 -122 218 -33 34 -39 37 -91 37 -45 0 -61 -4 -76 -21z
m915 -1869 c23 -32 26 -80 5 -87 -10 -3 -44 79 -44 106 0 20 16 11 39 -19z
m-246 -843 c29 -13 65 -29 80 -35 15 -7 30 -19 33 -27 3 -8 -15 -58 -40 -110
-43 -89 -70 -145 -180 -377 -24 -51 -64 -136 -88 -188 -25 -52 -62 -131 -83
-175 -21 -44 -61 -129 -90 -190 -29 -60 -62 -131 -75 -158 -20 -43 -40 -55
-40 -22 0 23 -72 75 -112 82 -21 3 -38 7 -38 10 0 13 134 178 190 233 36 36
75 79 85 95 31 47 44 69 51 85 4 8 19 43 35 78 16 34 29 67 29 73 0 6 6 23 14
37 13 25 21 46 62 155 9 23 23 56 31 73 21 44 14 63 -37 103 -26 19 -44 41
-42 50 8 51 3 100 -13 124 -23 36 -7 57 44 57 23 0 50 9 71 25 44 30 50 30
113 2z m-288 -97 c24 -35 27 -45 18 -73 -10 -36 -19 -37 -98 -13 -81 25 -198
58 -228 65 -52 11 -33 26 43 33 41 4 95 12 120 17 94 19 115 15 145 -29z
m-619 -83 c-4 -19 -12 -40 -19 -45 -6 -6 -63 -15 -125 -21 -62 -7 -125 -14
-141 -17 -24 -5 -33 0 -56 30 -15 19 -24 39 -21 44 4 7 102 24 291 50 33 4 64
5 69 1 5 -4 6 -23 2 -42z m-611 -37 c3 -6 -2 -13 -12 -16 -10 -3 -34 -12 -53
-21 -19 -8 -48 -21 -65 -28 -16 -7 -64 -29 -105 -49 -41 -20 -82 -36 -89 -36
-26 0 -51 32 -51 66 0 51 21 64 103 64 40 1 101 7 137 14 81 17 127 19 135 6z
m-413 -26 c3 -3 1 -20 -4 -38 -8 -27 -6 -40 11 -75 22 -41 21 -61 -2 -61 -7 0
-29 -11 -50 -25 -61 -42 -60 -44 101 -385 19 -40 71 -108 121 -160 41 -43 101
-115 101 -122 0 -3 18 -33 40 -66 43 -64 53 -110 23 -97 -10 4 -47 11 -83 16
-36 4 -81 13 -100 19 -19 5 -49 10 -67 10 -58 0 -107 27 -139 77 -41 64 -53
113 -43 165 12 65 11 153 -4 195 -31 85 -39 110 -53 161 -23 86 -17 163 22
277 8 23 14 47 14 56 0 33 30 59 69 59 21 0 40 -3 43 -6z m4038 -618 c102 -24
240 -101 240 -133 0 -8 -35 -57 -77 -108 -55 -66 -85 -94 -100 -95 -12 0 -25
4 -28 10 -9 14 -94 50 -120 50 -43 0 -46 17 -29 151 20 153 20 153 42 144 9
-3 42 -12 72 -19z m-236 -4 c3 -9 10 -71 16 -137 14 -178 -3 -181 -102 -16
-76 124 -83 151 -40 152 15 0 36 4 47 9 35 15 73 11 79 -8z m-6334 -37 c15
-18 33 -244 21 -259 -5 -6 -31 -18 -58 -25 -26 -8 -61 -23 -78 -33 -52 -31
-49 -34 -162 104 -35 42 -63 80 -63 85 0 27 176 115 265 133 60 11 62 11 75
-5z m238 -7 c20 -17 14 -45 -18 -75 -34 -32 -36 -40 -15 -63 14 -16 13 -22
-11 -69 -23 -45 -31 -52 -53 -49 -19 2 -25 8 -24 23 14 136 26 233 29 244 5
15 69 7 92 -11z m6719 -226 c27 -40 42 -65 48 -82 4 -8 12 -28 20 -45 19 -44
47 -154 41 -164 -3 -4 -64 -16 -135 -26 -142 -19 -161 -16 -161 30 0 26 -36
111 -50 120 -32 20 8 65 143 167 53 40 67 40 94 0z m-7345 -38 c23 -20 61 -51
83 -70 22 -18 49 -40 60 -48 20 -14 20 -15 -6 -63 -14 -26 -31 -67 -39 -91 -7
-23 -18 -46 -24 -51 -11 -9 -212 3 -248 15 -43 13 -3 173 72 289 11 17 23 36
26 43 10 20 30 14 76 -24z m1024 -11 c68 -116 115 -253 97 -281 -11 -19 -74
-29 -196 -33 -84 -3 -97 3 -97 49 0 12 -15 49 -32 82 l-33 60 40 32 c22 18 67
56 100 85 33 28 67 52 77 52 9 1 28 -19 44 -46z m5444 -117 c0 -8 -4 -17 -9
-21 -5 -3 -19 -37 -31 -75 -19 -61 -25 -70 -45 -70 -13 0 -27 4 -30 10 -7 11
50 119 71 136 8 6 14 16 14 23 0 6 7 11 15 11 8 0 15 -6 15 -14z m-46 -304 c9
-26 29 -69 43 -96 l26 -49 -29 -21 c-16 -12 -36 -28 -44 -36 -32 -32 -137
-110 -147 -110 -27 0 -117 177 -133 261 -12 61 -6 76 32 84 39 9 210 22 224
17 7 -2 19 -24 28 -50z m998 32 c15 -3 29 -13 32 -21 6 -16 -16 -105 -39 -158
-7 -16 -16 -37 -19 -45 -3 -8 -15 -28 -26 -45 -11 -16 -24 -40 -30 -52 -5 -13
-17 -23 -26 -23 -8 0 -60 35 -114 78 -69 54 -99 84 -99 99 -1 12 3 25 9 28 14
9 50 94 50 120 0 12 3 25 8 30 7 8 208 -1 254 -11z m-7344 -26 c5 -7 16 -33
23 -58 7 -25 23 -62 36 -82 13 -21 23 -42 23 -47 0 -13 -197 -171 -213 -171
-36 0 -132 202 -139 294 l-3 40 110 17 c141 21 150 22 163 7z m941 -9 c68 -9
105 -18 108 -27 18 -45 -105 -322 -142 -322 -12 0 -108 71 -180 133 l-39 34
31 59 c17 33 34 76 37 96 7 40 19 49 56 43 14 -2 72 -9 129 -16z m6078 -275
c20 -27 54 -69 75 -93 38 -44 38 -44 19 -65 -42 -45 -204 -114 -275 -118 l-50
-3 -17 125 c-10 69 -17 130 -15 135 2 6 30 19 62 30 33 10 75 29 94 41 42 26
52 21 107 -52z m-473 37 c34 -17 75 -33 89 -36 15 -4 29 -10 31 -14 8 -14 -15
-245 -26 -258 -26 -32 -184 16 -295 91 -24 16 -43 33 -43 39 0 8 59 88 80 107
3 3 22 26 43 53 21 26 43 47 48 47 5 0 38 -13 73 -29z m-6329 -41 c32 -16 69
-30 81 -30 40 0 44 -18 34 -151 -11 -153 -12 -154 -112 -128 -40 11 -77 24
-82 29 -6 6 -16 10 -22 10 -20 0 -132 70 -138 86 -6 15 151 213 170 214 6 0
37 -13 69 -30z m451 -7 c15 -21 50 -63 76 -94 64 -74 63 -89 -13 -134 -33 -19
-66 -35 -73 -35 -6 0 -16 -4 -22 -10 -13 -13 -162 -52 -173 -46 -4 3 -11 40
-15 83 -3 43 -9 104 -13 137 -6 64 1 75 47 76 14 1 48 14 75 30 28 16 57 29
66 30 9 0 29 -17 45 -37z"/>
</g>
</svg>
