<?xml version="1.0" encoding="UTF-8"?>
<svg version="1.1" xmlns="http://www.w3.org/2000/svg" width="44" height="44">
<path d="M0 0 C0.99 0 1.98 0 3 0 C4.60725635 3.21451269 4.05748185 6.43612536 4 10 C4.639375 10.165 5.27875 10.33 5.9375 10.5 C8 12 8 12 8.48828125 13.9140625 C8.7275978 15.93575155 8.86893028 17.96841939 9 20 C6.69 20 4.38 20 2 20 C2 20.99 2 21.98 2 23 C-0.31 23.33 -2.62 23.66 -5 24 C-5.66 23.01 -6.32 22.02 -7 21 C-10.34613512 20.41312216 -10.34613512 20.41312216 -14.125 20.3125 C-15.40632813 20.24675781 -16.68765625 20.18101563 -18.0078125 20.11328125 C-18.99523438 20.07589844 -19.98265625 20.03851563 -21 20 C-21.66 21.32 -22.32 22.64 -23 24 C-24.65 24 -26.3 24 -28 24 C-28.66 22.68 -29.32 21.36 -30 20 C-30.99 20 -31.98 20 -33 20 C-33 14.06 -33 8.12 -33 2 C-22.11 2 -11.22 2 0 2 C0 1.34 0 0.68 0 0 Z M-31 6 C-31 6.99 -31 7.98 -31 9 C-29.68 9 -28.36 9 -27 9 C-27 8.01 -27 7.02 -27 6 C-28.32 6 -29.64 6 -31 6 Z M-25 6 C-25 6.99 -25 7.98 -25 9 C-23.35 9 -21.7 9 -20 9 C-20 8.01 -20 7.02 -20 6 C-21.65 6 -23.3 6 -25 6 Z M-18 6 C-18 6.99 -18 7.98 -18 9 C-16.35 9 -14.7 9 -13 9 C-13 8.01 -13 7.02 -13 6 C-14.65 6 -16.3 6 -18 6 Z M-10 6 C-10 6.99 -10 7.98 -10 9 C-8.68 9 -7.36 9 -6 9 C-6 8.01 -6 7.02 -6 6 C-7.32 6 -8.64 6 -10 6 Z M-4 6 C-4 8.31 -4 10.62 -4 13 C-3.67 13 -3.34 13 -3 13 C-3 10.69 -3 8.38 -3 6 C-3.33 6 -3.66 6 -4 6 Z M1 6 C1 7.32 1 8.64 1 10 C1.66 10 2.32 10 3 10 C3 8.68 3 7.36 3 6 C2.34 6 1.68 6 1 6 Z " fill="#090909" transform="translate(34,12)"/>
</svg>
