<?xml version="1.0" encoding="UTF-8"?>
<svg version="1.1" xmlns="http://www.w3.org/2000/svg" width="56" height="56">
<path d="M0 0 C1.32 0.66 2.64 1.32 4 2 C7.96 -1.465 7.96 -1.465 12 -5 C12.495 -4.01 12.495 -4.01 13 -3 C10.69 -0.36 8.38 2.28 6 5 C6.28875 5.70125 6.5775 6.4025 6.875 7.125 C7.24625 8.07375 7.6175 9.0225 8 10 C8.37125 10.928125 8.7425 11.85625 9.125 12.8125 C11.08083489 19.9373271 10.23964919 26.41730857 7 33 C3.25015738 38.60492349 -1.32419527 43.33104882 -8 45 C-15.21615806 45.75959559 -22.89232696 46.32697844 -29.2890625 42.40234375 C-34.12386588 38.43957112 -38.14667985 34.04951671 -40 28 C-40.77266398 19.97687281 -41.31651315 11.56304025 -36 5 C-25.94233432 -6.42495203 -12.77457665 -7.39140352 0 0 Z M-25 2 C-24.34 3.32 -23.68 4.64 -23 6 C-23.99 6 -24.98 6 -26 6 C-26.33 5.01 -26.66 4.02 -27 3 C-28.98 5.31 -30.96 7.62 -33 10 C-32.01 10.66 -31.02 11.32 -30 12 C-31.32 11.67 -32.64 11.34 -34 11 C-36.65960145 17.8152287 -36.65960145 23.1847713 -34 30 C-32.68 29.67 -31.36 29.34 -30 29 C-30.66 30.32 -31.32 31.64 -32 33 C-30.71034824 34.37562854 -29.37310707 35.70766393 -28 37 C-27.34 37 -26.68 37 -26 37 C-26 36.34 -26 35.68 -26 35 C-25.01 35 -24.02 35 -23 35 C-23.66 36.32 -24.32 37.64 -25 39 C-18.1847713 41.65960145 -12.8152287 41.65960145 -6 39 C-6.66 37.68 -7.32 36.36 -8 35 C-7.01 35 -6.02 35 -5 35 C-4.67 35.99 -4.34 36.98 -4 38 C-2.02 35.69 -0.04 33.38 2 31 C1.01 30.01 0.02 29.02 -1 28 C0.32 28.66 1.64 29.32 3 30 C4.25664978 27.09399739 5 25.20395416 5 22 C3.68 22 2.36 22 1 22 C1 21.01 1 20.02 1 19 C2.32 19 3.64 19 5 19 C4.34 15.7 3.68 12.4 3 9 C-1.71751413 12.43091936 -5.25869161 16.57770784 -9 21 C-10.1453592 22.33374065 -11.29115647 23.66710528 -12.4375 25 C-13.283125 25.99 -14.12875 26.98 -15 28 C-18.17391668 24.99764638 -20.71252601 21.80246358 -23.25 18.25 C-23.95640625 17.26515625 -24.6628125 16.2803125 -25.390625 15.265625 C-25.92171875 14.51796875 -26.4528125 13.7703125 -27 13 C-24.41283532 14.2322487 -22.34283312 15.47918418 -20 17.1875 C-17.29328292 19.24026273 -17.29328292 19.24026273 -15.00097656 18.76977539 C-11.65126965 17.48114363 -9.3022443 14.88289196 -6.75 12.4375 C-6.19570313 11.91736328 -5.64140625 11.39722656 -5.0703125 10.86132812 C-3.70743172 9.58069015 -2.35288317 8.2911951 -1 7 C-2.32 5.68 -3.64 4.36 -5 3 C-5 3.99 -5 4.98 -5 6 C-5.99 6 -6.98 6 -8 6 C-7.34 4.68 -6.68 3.36 -6 2 C-8.90600261 0.74335022 -10.79604584 0 -14 0 C-14 1.32 -14 2.64 -14 4 C-14.66 4 -15.32 4 -16 4 C-16 2.68 -16 1.36 -16 0 C-19.79557881 0 -21.62902617 0.50178941 -25 2 Z " fill="#000000" transform="translate(42,8)"/>
<path d="M0 0 C0.99 0 1.98 0 3 0 C3 0.99 3 1.98 3 3 C2.01 3 1.02 3 0 3 C0 2.01 0 1.02 0 0 Z " fill="#000000" transform="translate(7,27)"/>
<path d="M0 0 C0.66 0 1.32 0 2 0 C2 0.99 2 1.98 2 3 C1.34 3 0.68 3 0 3 C0 2.01 0 1.02 0 0 Z " fill="#000000" transform="translate(26,45)"/>
</svg>
