<?xml version="1.0" encoding="UTF-8"?>
<svg version="1.1" xmlns="http://www.w3.org/2000/svg" width="44" height="44">
<path d="M0 0 C3.61044787 1.3481636 7.37347542 2.04300407 11.14453125 2.80078125 C11.63953125 5.77078125 11.63953125 5.77078125 12.14453125 8.80078125 C10.82453125 9.13078125 9.50453125 9.46078125 8.14453125 9.80078125 C8.14453125 10.46078125 8.14453125 11.12078125 8.14453125 11.80078125 C5.26953125 12.42578125 5.26953125 12.42578125 2.14453125 12.80078125 C1.48453125 12.14078125 0.82453125 11.48078125 0.14453125 10.80078125 C-1.7577518 10.49174836 -1.7577518 10.49174836 -3.91796875 10.53515625 C-4.71460937 10.53257813 -5.51125 10.53 -6.33203125 10.52734375 C-7.16476563 10.53507812 -7.9975 10.5428125 -8.85546875 10.55078125 C-10.10457031 10.53917969 -10.10457031 10.53917969 -11.37890625 10.52734375 C-12.57386719 10.53121094 -12.57386719 10.53121094 -13.79296875 10.53515625 C-14.52386719 10.53741211 -15.25476563 10.53966797 -16.0078125 10.54199219 C-18.10244239 10.64629564 -18.10244239 10.64629564 -19.85546875 12.80078125 C-23.98810134 12.4563952 -27.23655079 10.73648156 -30.85546875 8.80078125 C-30.52546875 6.16078125 -30.19546875 3.52078125 -29.85546875 0.80078125 C-19.96897256 -2.94849947 -9.98197364 -3.90760007 0 0 Z " fill="#090A0A" transform="translate(31.85546875,18.19921875)"/>
<path d="M0 0 C1.43472656 -0.02126953 1.43472656 -0.02126953 2.8984375 -0.04296875 C5.65510017 0.19004428 7.27447395 0.77829836 9.625 2.1875 C9.625 2.5175 9.625 2.8475 9.625 3.1875 C4.015 3.1875 -1.595 3.1875 -7.375 3.1875 C-7.375 2.5275 -7.375 1.8675 -7.375 1.1875 C-4.801671 -0.0991645 -2.87276962 0.01925449 0 0 Z " fill="#DADCDB" transform="translate(18.375,16.8125)"/>
<path d="M0 0 C1.65 0.33 3.3 0.66 5 1 C4.67 2.32 4.34 3.64 4 5 C2.35 4.67 0.7 4.34 -1 4 C-0.67 2.68 -0.34 1.36 0 0 Z " fill="#A7A8A7" transform="translate(8,24)"/>
<path d="M0 0 C1.98 0.495 1.98 0.495 4 1 C3.67 2.32 3.34 3.64 3 5 C1.68 5 0.36 5 -1 5 C-0.67 3.35 -0.34 1.7 0 0 Z " fill="#B8B9B8" transform="translate(35,24)"/>
</svg>
