<?xml version="1.0" standalone="no"?>
<!DOCTYPE svg PUBLIC "-//W3C//DTD SVG 20010904//EN"
 "http://www.w3.org/TR/2001/REC-SVG-20010904/DTD/svg10.dtd">
<svg version="1.0" xmlns="http://www.w3.org/2000/svg"
 width="56.000000pt" height="56.000000pt" viewBox="0 0 56.000000 56.000000"
 preserveAspectRatio="xMidYMid meet">
<metadata>
Created by potrace 1.16, written by Peter Selinger 2001-2019
</metadata>
<g transform="translate(0.000000,56.000000) scale(0.100000,-0.100000)"
fill="#000000" stroke="none">
<path d="M245 535 c-5 -2 -22 -6 -37 -9 -37 -8 -98 -63 -114 -103 -20 -46 -17
-140 5 -188 10 -22 46 -73 80 -114 34 -40 66 -82 72 -93 6 -11 16 -18 23 -16
18 4 153 173 178 223 26 49 28 147 6 190 -18 33 -61 77 -93 93 -22 11 -104 23
-120 17z m93 -89 c86 -47 78 -184 -13 -222 -44 -18 -59 -18 -102 3 -44 21 -73
67 -73 117 0 31 7 45 39 77 33 34 45 39 82 39 24 -1 54 -6 67 -14z"/>
<path d="M235 431 c-36 -15 -56 -47 -57 -88 -1 -66 36 -103 103 -103 61 0 109
63 94 123 -14 54 -89 90 -140 68z"/>
</g>
</svg>
