<?xml version="1.0" encoding="UTF-8"?>
<svg version="1.1" xmlns="http://www.w3.org/2000/svg" width="67" height="67">
<path d="M0 0 C4.11053892 0.9728285 6.17038161 2.54121846 8.72631836 5.9831543 C9.8923186 8.04513714 11.01650722 10.13123183 12.10131836 12.23706055 C13.43486879 14.26250443 14.78926496 16.27437229 16.16381836 18.2722168 C17.47933542 20.27935718 18.79183648 22.28847754 20.10131836 24.29956055 C21.12032227 25.84546875 21.12032227 25.84546875 22.15991211 27.42260742 C22.80057617 28.40422852 23.44124023 29.38584961 24.10131836 30.3972168 C24.96756836 31.72184937 24.96756836 31.72184937 25.85131836 33.07324219 C27.10131836 35.23706055 27.10131836 35.23706055 27.10131836 37.23706055 C6.31131836 37.23706055 -14.47868164 37.23706055 -35.89868164 37.23706055 C-34.24384772 30.61772485 -30.39506421 25.03149563 -26.83984375 19.26342773 C-25.92560053 17.75388217 -25.03640611 16.2288608 -24.17382812 14.68920898 C-18.19729959 4.05462142 -12.90861579 -1.7629753 0 0 Z M-5.89868164 13.23706055 C-5.89868164 14.22706055 -5.89868164 15.21706055 -5.89868164 16.23706055 C-5.23868164 16.23706055 -4.57868164 16.23706055 -3.89868164 16.23706055 C-3.89868164 15.24706055 -3.89868164 14.25706055 -3.89868164 13.23706055 C-4.55868164 13.23706055 -5.21868164 13.23706055 -5.89868164 13.23706055 Z M-6.89868164 25.23706055 C-6.89868164 28.20706055 -6.89868164 31.17706055 -6.89868164 34.23706055 C-5.57868164 34.23706055 -4.25868164 34.23706055 -2.89868164 34.23706055 C-2.89868164 31.26706055 -2.89868164 28.29706055 -2.89868164 25.23706055 C-4.21868164 25.23706055 -5.53868164 25.23706055 -6.89868164 25.23706055 Z " fill="#000000" transform="translate(37.898681640625,13.762939453125)"/>
<path d="M0 0 C20.79 0 41.58 0 63 0 C61 4 61 4 60 5 C58.18944975 5.09376053 56.37522799 5.1174411 54.56225586 5.11352539 C52.82056374 5.11341209 52.82056374 5.11341209 51.04368591 5.11329651 C49.14840904 5.10555458 49.14840904 5.10555458 47.21484375 5.09765625 C45.92888809 5.0962413 44.64293243 5.09482635 43.31800842 5.09336853 C39.89356557 5.08954418 36.46916491 5.07971462 33.04473877 5.06866455 C29.55261811 5.05844864 26.06049066 5.05387053 22.56835938 5.04882812 C15.71222222 5.03809227 8.85611313 5.02101684 2 5 C1.34 3.35 0.68 1.7 0 0 Z " fill="#000000" transform="translate(2,52)"/>
</svg>
