<?xml version="1.0" encoding="UTF-8"?>
<svg version="1.1" xmlns="http://www.w3.org/2000/svg" width="56" height="56">
<path d="M0 0 C0 1.32 0 2.64 0 4 C-0.66 4.66 -1.32 5.32 -2 6 C-1.6814823 8.10820797 -1.6814823 8.10820797 -1 10 C1.92879371 9.37240135 4.36095629 8.41377341 7 7 C7.495 7.495 7.495 7.495 8 8 C7.79160133 11.68170992 7.48249299 14.26661066 5.4375 17.375 C1.96821997 19.68785335 -0.8593331 19.72395554 -5 20 C-5 20.66 -5 21.32 -5 22 C-3.68 22.66 -2.36 23.32 -1 24 C-1 25.98 -1 27.96 -1 30 C-1.639375 30.268125 -2.27875 30.53625 -2.9375 30.8125 C-5.33131686 31.88667752 -5.33131686 31.88667752 -6 35 C-4.89591797 35.13341797 -4.89591797 35.13341797 -3.76953125 35.26953125 C1.06264414 36.54402603 4.03669209 40.10842697 7 44 C7.75 47.25 7.75 47.25 7 50 C5.375 52.375 5.375 52.375 3 54 C0.21875 54.4453125 0.21875 54.4453125 -3 54 C-5.23190671 52.20515074 -6.98220917 50.59338551 -8.875 48.5 C-9.62136719 47.71302734 -9.62136719 47.71302734 -10.3828125 46.91015625 C-11.60263915 45.61995498 -12.80330249 44.31168268 -14 43 C-14.66 43.66 -15.32 44.32 -16 45 C-19.625 45.125 -19.625 45.125 -23 45 C-23 43.68 -23 42.36 -23 41 C-24.98 41.495 -24.98 41.495 -27 42 C-27.0928125 43.5778125 -27.0928125 43.5778125 -27.1875 45.1875 C-28.15500269 49.72732031 -29.28180527 51.27332387 -33 54 C-36.3125 54.3125 -36.3125 54.3125 -39 54 C-38.37240135 51.07120629 -37.41377341 48.63904371 -36 46 C-37.32 45.34 -38.64 44.68 -40 44 C-40.433125 44.495 -40.86625 44.99 -41.3125 45.5 C-43 47 -43 47 -46 47 C-46.46009282 43.04320172 -46.33274372 41.45374144 -43.9375 38.1875 C-40.52655584 35.6474352 -38.19769372 35.24692316 -34 35 C-33.67 33.68 -33.34 32.36 -33 31 C-34.32 31 -35.64 31 -37 31 C-37 28.36 -37 25.72 -37 23 C-35.68 23 -34.36 23 -33 23 C-33.28879317 19.24568878 -33.48704211 16.69615714 -35.75 13.625 C-37.89526039 11.82417823 -37.89526039 11.82417823 -40.5625 11.5625 C-43 11 -43 11 -44.875 8.6875 C-46.07817396 5.81325108 -46.15154588 4.82652171 -45 2 C-43.3125 1.25 -43.3125 1.25 -41 1 C-36.51678674 3.66857932 -35.477108 6.14664514 -34 11 C-30.3558226 13.4294516 -28.28758728 13.16179575 -24 13 C-23.34 11.68 -22.68 10.36 -22 9 C-20.02 9 -18.04 9 -16 9 C-15.34 10.32 -14.68 11.64 -14 13 C-11.69 13 -9.38 13 -7 13 C-6.34 14.32 -5.68 15.64 -5 17 C-2.69 16.34 -0.38 15.68 2 15 C0.88625 14.62875 -0.2275 14.2575 -1.375 13.875 C-4.61378762 12.5205979 -4.89272441 12.23787197 -6.4375 8.8125 C-6.623125 7.884375 -6.80875 6.95625 -7 6 C-7.66 7.98 -8.32 9.96 -9 12 C-9.66 12 -10.32 12 -11 12 C-11.375 8.8125 -11.375 8.8125 -11 5 C-7.58512753 1.26746497 -5.16019034 -0.75885152 0 0 Z M-42 5 C-41.67 5.99 -41.34 6.98 -41 8 C-40.34 8 -39.68 8 -39 8 C-39 7.34 -39 6.68 -39 6 C-39.99 5.67 -40.98 5.34 -42 5 Z M-21 12 C-21 13.32 -21 14.64 -21 16 C-23.97 16 -26.94 16 -30 16 C-30 16.99 -30 17.98 -30 19 C-30.31669821 21.33564933 -30.64820803 23.6693782 -31 26 C-32.32 26 -33.64 26 -35 26 C-35 26.99 -35 27.98 -35 29 C-33.68 29 -32.36 29 -31 29 C-30.45627049 32.05847848 -30 34.88772805 -30 38 C-27.03 38.33 -24.06 38.66 -21 39 C-21 39.99 -21 40.98 -21 42 C-20.01 42 -19.02 42 -18 42 C-18 41.01 -18 40.02 -18 39 C-11.375 38 -11.375 38 -8 38 C-8 35.03 -8 32.06 -8 29 C-6.68 29 -5.36 29 -4 29 C-4 28.01 -4 27.02 -4 26 C-4.99 25.67 -5.98 25.34 -7 25 C-7.33 22.36 -7.66 19.72 -8 17 C-11.00419641 15.9986012 -13.87709365 15.48578543 -17 15 C-17.33 14.01 -17.66 13.02 -18 12 C-18.99 12 -19.98 12 -21 12 Z M-42 41 C-39.36 41.33 -36.72 41.66 -34 42 C-33.67 44.31 -33.34 46.62 -33 49 C-30.75802612 47.22510401 -30.05673677 46.37824511 -29.625 43.5 C-29.82267348 40.99527565 -29.82267348 40.99527565 -31.1875 39.1875 C-35.37411342 36.44454638 -38.52775624 37.9135611 -42 41 Z M-7.5625 40.5 C-8.7690625 41.7375 -8.7690625 41.7375 -10 43 C-8.79040384 44.37167605 -7.55648812 45.72193609 -6.3125 47.0625 C-5.62800781 47.81660156 -4.94351563 48.57070313 -4.23828125 49.34765625 C-2.08883136 51.31762746 -2.08883136 51.31762746 0.76953125 50.74609375 C1.50558594 50.49988281 2.24164063 50.25367188 3 50 C3.85615393 48.22863207 3.85615393 48.22863207 4 46 C2.3991219 43.7537287 2.3991219 43.7537287 0.125 41.75 C-0.61492188 41.04359375 -1.35484375 40.3371875 -2.1171875 39.609375 C-5.04155166 37.10971103 -4.57978546 37.59003459 -7.5625 40.5 Z " fill="#000000" transform="translate(47,1)"/>
<path d="M0 0 C3.32878632 2.46040728 4.79301948 3.89610387 5.5625 8 C4.84202557 11.8425303 3.99097304 13.45767292 1 16 C-2.99893269 16.94237143 -5.98105682 16.61136591 -9.5 14.5 C-11.61136591 10.98105682 -11.94237143 7.99893269 -11 4 C-7.75032314 0.17685075 -4.94151119 -0.92653335 0 0 Z M-6 3 C-7.66846734 4.69495956 -7.66846734 4.69495956 -9 7 C-9.00635246 9.63537508 -9.00635246 9.63537508 -8 12 C-5.24104365 14.29637779 -5.24104365 14.29637779 -2.4375 13.75 C0.15000567 13.16191948 0.15000567 13.16191948 2 11 C1.67673447 7.40320934 1.67673447 7.40320934 1 4 C-1.31 3.67 -3.62 3.34 -6 3 Z " fill="#000000" transform="translate(31,20)"/>
</svg>
