<?xml version="1.0" encoding="UTF-8"?>
<svg version="1.1" xmlns="http://www.w3.org/2000/svg" width="67" height="67">
<path d="M0 0 C4.3511404 0.40791941 7.88506195 2.30047177 11.71875 4.2578125 C14.41608207 5.34133498 14.41608207 5.34133498 19 4 C19 11.59 19 19.18 19 27 C17.02 27 15.04 27 13 27 C12.814375 27.639375 12.62875 28.27875 12.4375 28.9375 C11 31 11 31 7.625 31.9375 C4 32 4 32 1.5625 30.5625 C1.046875 30.046875 0.53125 29.53125 0 29 C0 29.66 0 30.32 0 31 C-6.625 32.25 -6.625 32.25 -10 30 C-10.33 29.01 -10.66 28.02 -11 27 C-11.66 27 -12.32 27 -13 27 C-13 25.02 -13 23.04 -13 21 C-13.99 21 -14.98 21 -16 21 C-15.05275873 18.63189682 -14.34708866 17.24792047 -12.25 15.75 C-9.42246362 14.80748787 -6.96006696 14.8654515 -4 15 C-3.87625 14.2575 -3.7525 13.515 -3.625 12.75 C-3 10 -3 10 -1.9375 8 C-0.79035058 5.55274791 -0.92779988 3.67140453 -1 1 C-0.67 0.67 -0.34 0.34 0 0 Z M2 5 C1.34 6.093125 0.68 7.18625 0 8.3125 C-0.37125 8.92738281 -0.7425 9.54226562 -1.125 10.17578125 C-2.21623999 12.11361926 -2.21623999 12.11361926 -2 15 C2.95 15 7.9 15 13 15 C13 13.68 13 12.36 13 11 C9.37 9.02 5.74 7.04 2 5 Z M-6 24 C-6.33 25.32 -6.66 26.64 -7 28 C-6.01 28.33 -5.02 28.66 -4 29 C-3.34 27.68 -2.68 26.36 -2 25 C-3.32 24.67 -4.64 24.34 -6 24 Z M5 24 C4.67 24.99 4.34 25.98 4 27 C5.485 27.99 5.485 27.99 7 29 C7.66 28.67 8.32 28.34 9 28 C8.67 26.68 8.34 25.36 8 24 C7.01 24 6.02 24 5 24 Z " fill="#000000" transform="translate(18,19)"/>
<path d="M0 0 C1.65 0 3.3 0 5 0 C5.33 1.32 5.66 2.64 6 4 C7.98 4 9.96 4 12 4 C12.33 7.63 12.66 11.26 13 15 C14.65 15 16.3 15 18 15 C18 15.99 18 16.98 18 18 C18.99 18.33 19.98 18.66 21 19 C21.02689216 20.47906892 21.04634621 21.95827483 21.0625 23.4375 C21.07410156 24.26121094 21.08570312 25.08492187 21.09765625 25.93359375 C21 28 21 28 20 29 C15.83535074 29.16017882 12.05273808 28.98248196 8 28 C7.67 29.32 7.34 30.64 7 32 C3.6875 32.6875 3.6875 32.6875 0 33 C-1.9375 31.6875 -1.9375 31.6875 -3 30 C-3 29.34 -3 28.68 -3 28 C-3.99 28 -4.98 28 -6 28 C-6 20.08 -6 12.16 -6 4 C-4.68 4 -3.36 4 -2 4 C-2 3.34 -2 2.68 -2 2 C-1.34 2 -0.68 2 0 2 C0 1.34 0 0.68 0 0 Z M1 7 C1 9.64 1 12.28 1 15 C3.97 15 6.94 15 10 15 C10.20970559 10.85906302 10.20970559 10.85906302 9 7 C6.36 7 3.72 7 1 7 Z M1 25 C1 26.32 1 27.64 1 29 C1.66 29.33 2.32 29.66 3 30 C3.66 29.67 4.32 29.34 5 29 C4.67 27.68 4.34 26.36 4 25 C3.01 25 2.02 25 1 25 Z " fill="#000000" transform="translate(44,18)"/>
</svg>
