<?xml version="1.0" standalone="no"?>
<!DOCTYPE svg PUBLIC "-//W3C//DTD SVG 20010904//EN"
 "http://www.w3.org/TR/2001/REC-SVG-20010904/DTD/svg10.dtd">
<svg version="1.0" xmlns="http://www.w3.org/2000/svg"
 width="56.000000pt" height="56.000000pt" viewBox="0 0 56.000000 56.000000"
 preserveAspectRatio="xMidYMid meet">
<metadata>
Created by potrace 1.10, written by Peter Selinger 2001-2011
</metadata>
<g transform="translate(0.000000,56.000000) scale(0.100000,-0.100000)"
fill="#000000" stroke="none">
<path d="M76 398 c-14 -19 -14 -25 -2 -44 14 -20 12 -22 -20 -37 -22 -11 -34
-24 -34 -37 0 -24 4 -25 35 -4 25 16 25 16 25 -17 0 -19 -11 -54 -25 -78 -30
-52 -30 -51 -5 -51 13 0 26 12 37 35 9 19 19 35 23 35 3 0 12 -16 19 -35 9
-27 18 -35 37 -35 l24 0 -25 50 c-14 27 -25 63 -25 80 l0 31 29 -17 c28 -16
31 -16 55 0 l26 16 0 -35 c0 -20 -9 -53 -20 -75 -25 -49 -25 -50 1 -50 14 0
25 11 35 35 16 40 26 39 44 -5 9 -21 19 -30 36 -30 l23 0 -24 43 c-14 23 -25
58 -25 79 l0 37 29 -16 c27 -16 30 -16 55 0 l26 17 0 -37 c0 -22 -11 -56 -25
-80 l-24 -43 23 0 c16 0 27 11 40 37 l18 38 19 -38 c13 -24 26 -37 39 -37 25
0 25 2 0 50 -11 22 -20 56 -20 76 0 35 1 36 18 21 24 -22 32 -21 32 3 0 13
-12 26 -35 37 -33 16 -34 18 -18 35 25 27 3 71 -34 66 -36 -4 -52 -31 -35 -59
12 -18 12 -23 0 -31 -43 -29 -50 -30 -89 -12 -36 16 -38 19 -24 34 18 20 19
42 3 58 -37 37 -100 -17 -65 -56 16 -17 15 -19 -20 -36 -35 -17 -38 -16 -70 1
-32 17 -43 33 -23 33 14 0 13 43 -2 58 -19 19 -45 14 -62 -10z"/>
</g>
</svg>
