<?xml version="1.0" encoding="UTF-8"?>
<svg version="1.1" xmlns="http://www.w3.org/2000/svg" width="67" height="67">
<path d="M0 0 C3.63 0 7.26 0 11 0 C11.66 1.32 12.32 2.64 13 4 C14.66335851 5.45782232 14.66335851 5.45782232 17 6 C18.7015625 5.690625 18.7015625 5.690625 20.4375 5.375 C24 5 24 5 26.8125 6.625 C29.10819182 9.1174654 30.19960626 10.71838565 31 14 C30.67449498 15.66821323 30.34153937 17.33499557 30 19 C30.57518232 21.23377831 30.57518232 21.23377831 32 23 C33.32 23.66 34.64 24.32 36 25 C36 28.63 36 32.26 36 36 C34.68 36.66 33.36 37.32 32 38 C30.54217768 39.66335851 30.54217768 39.66335851 30 42 C30.20625 43.134375 30.4125 44.26875 30.625 45.4375 C31 49 31 49 29.375 51.8125 C26.8825346 54.10819182 25.28161435 55.19960626 22 56 C20.33178677 55.67449498 18.66500443 55.34153937 17 55 C14.76622169 55.57518232 14.76622169 55.57518232 13 57 C12.34 58.32 11.68 59.64 11 61 C7.37 61 3.74 61 0 61 C-0.66 59.68 -1.32 58.36 -2 57 C-3.66335851 55.54217768 -3.66335851 55.54217768 -6 55 C-7.134375 55.20625 -8.26875 55.4125 -9.4375 55.625 C-13 56 -13 56 -15.8125 54.375 C-18.10819182 51.8825346 -19.19960626 50.28161435 -20 47 C-19.67449498 45.33178677 -19.34153937 43.66500443 -19 42 C-19.57518232 39.76622169 -19.57518232 39.76622169 -21 38 C-22.32 37.34 -23.64 36.68 -25 36 C-25 32.37 -25 28.74 -25 25 C-23.68 24.34 -22.36 23.68 -21 23 C-19.54217768 21.33664149 -19.54217768 21.33664149 -19 19 C-19.20625 17.865625 -19.4125 16.73125 -19.625 15.5625 C-20 12 -20 12 -18.375 9.1875 C-15.8825346 6.89180818 -14.28161435 5.80039374 -11 5 C-9.33178677 5.32550502 -7.66500443 5.65846063 -6 6 C-3.76622169 5.42481768 -3.76622169 5.42481768 -2 4 C-1.34 2.68 -0.68 1.36 0 0 Z M-13 17 C-17.15966151 22.97354669 -18.06056331 28.82560111 -17 36 C-15.16425225 41.40727684 -15.16425225 41.40727684 -11 45 C-10.566875 43.14375 -10.566875 43.14375 -10.125 41.25 C-9.04260848 38.24276446 -8.3698431 37.21678404 -5.57421875 35.578125 C-3.07034781 34.60065912 -0.58426888 33.73697724 2 33 C1.67 32.34 1.34 31.68 1 31 C0.34 31 -0.32 31 -1 31 C-1.69437747 29.00945124 -2.35610218 27.00744615 -3 25 C-3.268125 24.195625 -3.53625 23.39125 -3.8125 22.5625 C-4.08773498 18.80095532 -2.71116532 16.29557765 -1 13 C1.32686453 11.83656773 2.84721413 11.80104012 5.4375 11.75 C6.21996094 11.72421875 7.00242187 11.6984375 7.80859375 11.671875 C10.52632999 12.07880877 11.31745646 12.87521692 13 15 C14.42053064 17.69900822 15.04750074 19.38249041 14.8125 22.4375 C13.52982409 26.48286249 12.01918529 29.98081471 9 33 C9.68707031 33.1959375 10.37414062 33.391875 11.08203125 33.59375 C18.35401373 36.00734075 18.35401373 36.00734075 20.33203125 39.046875 C21.125 41.25 21.125 41.25 22 45 C25.83975011 41.5442249 27.67196546 38.5518036 28.3359375 33.38671875 C28.45227996 25.34745482 26.82087634 20.44773775 21.75 14.25 C15.69411643 9.29518617 10.59333903 7.2954199 2.6796875 7.61328125 C-3.89815951 8.56256238 -8.8181747 11.88888019 -13 17 Z M2 33 C2.33 33.99 2.66 34.98 3 36 C3 35.01 3 34.02 3 33 C2.67 33 2.34 33 2 33 Z M7 33 C7.33 33.99 7.66 34.98 8 36 C8.33 35.01 8.66 34.02 9 33 C8.34 33 7.68 33 7 33 Z M0 52 C0 52.33 0 52.66 0 53 C3.63 53 7.26 53 11 53 C11 52.67 11 52.34 11 52 C7.37 52 3.74 52 0 52 Z " fill="#000000" transform="translate(28,3)"/>
</svg>
