<?xml version="1.0" encoding="UTF-8"?>
<svg version="1.1" xmlns="http://www.w3.org/2000/svg" width="44" height="44">
<path d="M0 0 C0.66 0 1.32 0 2 0 C2 1.32 2 2.64 2 4 C2.99 4.33 3.98 4.66 5 5 C5 5.66 5 6.32 5 7 C6.65 6.67 8.3 6.34 10 6 C9.67 8.31 9.34 10.62 9 13 C10.093125 12.95875 11.18625 12.9175 12.3125 12.875 C16 13 16 13 19 15 C19.56737589 22.14893617 19.56737589 22.14893617 17 26 C14.01066575 27.04279102 12.01553239 27.4355189 9.05078125 26.1640625 C7.32630021 25.17764535 5.65809262 24.09434113 4 23 C4.66 20.03 5.32 17.06 6 14 C5.65066406 14.63808594 5.30132813 15.27617187 4.94140625 15.93359375 C4.25884766 17.17302734 4.25884766 17.17302734 3.5625 18.4375 C3.11003906 19.26121094 2.65757813 20.08492187 2.19140625 20.93359375 C1 23 1 23 0 24 C-1.47754616 24.07228699 -2.95833998 24.0837999 -4.4375 24.0625 C-5.24058594 24.05347656 -6.04367188 24.04445313 -6.87109375 24.03515625 C-7.92490234 24.01775391 -7.92490234 24.01775391 -9 24 C-11.13531711 23.78747743 -11.13531711 23.78747743 -12.8125 25.5 C-15.48728988 27.33414163 -16.81777933 27.48957241 -20 27 C-21.8125 25.9375 -21.8125 25.9375 -23 24 C-23.4375 20.5 -23.4375 20.5 -23 17 C-21.125 15.0625 -21.125 15.0625 -19 14 C-18.34 14 -17.68 14 -17 14 C-17 13.34 -17 12.68 -17 12 C-16.28714844 11.89042969 -15.57429687 11.78085937 -14.83984375 11.66796875 C-9.12405578 10.72174813 -4.20804382 9.54615476 1 7 C0.01 7 -0.98 7 -2 7 C-1.42415568 4.61435923 -0.77772405 2.33317216 0 0 Z " fill="#161412" transform="translate(25,8)"/>
</svg>
