<?xml version="1.0" encoding="UTF-8"?>
<svg version="1.1" xmlns="http://www.w3.org/2000/svg" width="44" height="44">
<path d="M0 0 C0 0.66 0 1.32 0 2 C1.98 2 3.96 2 6 2 C6 1.34 6 0.68 6 0 C12.78804789 0.91730377 20.25253275 2.16835517 26 6 C26.1875 8.625 26.1875 8.625 26 11 C21.8794254 12.99785435 18.54805635 13.17835515 14 13 C14 12.34 14 11.68 14 11 C8.06 11 2.12 11 -4 11 C-4 11.66 -4 12.32 -4 13 C-7.34145968 13.23312509 -9.71583874 13.10501612 -12.875 11.9375 C-15 10 -15 10 -15.3125 6.3125 C-15.209375 5.219375 -15.10625 4.12625 -15 3 C-12.87562952 2.49733206 -10.75048274 1.9979439 -8.625 1.5 C-7.44164062 1.2215625 -6.25828125 0.943125 -5.0390625 0.65625 C-2 0 -2 0 0 0 Z " fill="#0B0B0B" transform="translate(17,17)"/>
<path d="M0 0 C1.32 0 2.64 0 4 0 C3.67 1.65 3.34 3.3 3 5 C1.68 4.67 0.36 4.34 -1 4 C-0.67 2.68 -0.34 1.36 0 0 Z " fill="#B2B3B3" transform="translate(8,24)"/>
<path d="M0 0 C1.98 0.495 1.98 0.495 4 1 C3.67 2.32 3.34 3.64 3 5 C1.68 4.67 0.36 4.34 -1 4 C-0.67 2.68 -0.34 1.36 0 0 Z " fill="#BBBBBB" transform="translate(33,24)"/>
</svg>
